<svg xmlns="http://www.w3.org/2000/svg" viewBox="0 0 512 512">
  <defs>
    <linearGradient id="fond" x1="0%" y1="0%" x2="0%" y2="100%">
      <stop offset="0%" stop-color="#ff913d"/>
      <stop offset="50%" stop-color="#ff4682"/>
      <stop offset="100%" stop-color="#823cdc"/>
    </linearGradient>
    <filter id="ombre" x="-20%" y="-20%" width="140%" height="140%">
      <feDropShadow dx="4" dy="6" stdDeviation="5" flood-color="#000000" flood-opacity="0.35"/>
    </filter>
  </defs>

  <rect x="0" y="0" width="512" height="512" rx="110" fill="url(#fond)"/>

  <circle cx="150" cy="70" r="8" fill="#ffffff" opacity="0.9"/>
  <circle cx="260" cy="50" r="6" fill="#ffffff" opacity="0.7"/>
  <circle cx="330" cy="90" r="5" fill="#ffe066"/>
  <circle cx="70" cy="150" r="5" fill="#ffe066"/>
  <circle cx="430" cy="150" r="7" fill="#ffffff" opacity="0.6"/>
  <circle cx="80" cy="260" r="7" fill="#ffffff" opacity="0.8"/>
  <circle cx="90" cy="340" r="6" fill="#ffe066"/>
  <circle cx="420" cy="200" r="6" fill="#ffb6d9" opacity="0.8"/>
  <circle cx="440" cy="300" r="5" fill="#ffffff" opacity="0.6"/>
  <circle cx="60" cy="430" r="6" fill="#ffffff" opacity="0.7"/>
  <circle cx="380" cy="440" r="7" fill="#ffffff" opacity="0.8"/>
  <circle cx="430" cy="380" r="5" fill="#ffe066"/>
  <circle cx="180" cy="450" r="6" fill="#ffb6d9" opacity="0.7"/>

  <circle cx="400" cy="125" r="34" fill="#ffffff" stroke="#5a2810" stroke-width="6"/>
  <circle cx="400" cy="125" r="10" fill="#ff963d"/>

  <text x="256" y="330" font-family="'Poppins', 'Segoe UI', Arial, sans-serif" font-weight="700"
        font-size="220" text-anchor="middle" fill="#ffffff" filter="url(#ombre)">RV</text>

  <rect x="154" y="352" width="204" height="12" rx="6" fill="#ffe066"/>
</svg>
